<svg xmlns="http://www.w3.org/2000/svg" viewBox="0 0 1024 1024">
<defs>
  <linearGradient id="bg" x1="0" y1="0" x2="1" y2="1">
    <stop offset="0%" stop-color="#3fa2ff"/>
    <stop offset="100%" stop-color="#0b2ca8"/>
  </linearGradient>
  <linearGradient id="gold" x1="0" y1="0" x2="1" y2="1">
    <stop offset="0%" stop-color="#ffd54a"/>
    <stop offset="100%" stop-color="#f2a900"/>
  </linearGradient>
</defs>

<rect x="70" y="70" width="884" height="884" rx="180" fill="url(#bg)"/>

<rect x="220" y="420" width="180" height="220" rx="20" fill="#29c34a" transform="rotate(-10 220 420)"/>
<rect x="220" y="470" width="150" height="60" fill="#0f3a82"/>

<rect x="600" y="220" width="220" height="260" rx="24" fill="#eef3ff" transform="rotate(8 600 220)"/>
<line x1="640" y1="280" x2="760" y2="280" stroke="#9fb2d9" stroke-width="12"/>
<line x1="640" y1="340" x2="780" y2="340" stroke="#9fb2d9" stroke-width="12"/>

<polygon points="250,400 512,230 775,400" fill="#eceff6"/>
<rect x="240" y="390" width="540" height="35" rx="12" fill="#d8dee9"/>
<rect x="270" y="425" width="485" height="260" rx="8" fill="#17305e"/>

<g fill="#f2f4f8">
<rect x="300" y="430" width="60" height="230" rx="30"/>
<rect x="420" y="430" width="60" height="230" rx="30"/>
<rect x="540" y="430" width="60" height="230" rx="30"/>
<rect x="660" y="430" width="60" height="230" rx="30"/>
</g>

<circle cx="512" cy="335" r="72" fill="url(#gold)"/>
<text x="512" y="362" text-anchor="middle" font-size="96" font-family="Arial" font-weight="bold" fill="white">$</text>

<g transform="translate(730 650)">
<circle r="95" fill="#1ec24d"/>
<path d="M -35 0 L -5 35 L 45 -30" fill="none" stroke="white" stroke-width="28" stroke-linecap="round" stroke-linejoin="round"/>
</g>

<g transform="translate(785 560)">
<ellipse cx="0" cy="0" rx="60" ry="18" fill="#ffca28"/>
<rect x="-60" y="0" width="120" height="70" fill="#f4b400"/>
<ellipse cx="0" cy="70" rx="60" ry="18" fill="#e09a00"/>
</g>
</svg>